<?xml version="1.0" encoding="UTF-8" standalone="no"?>
<!-- Created with Inkscape (http://www.inkscape.org/) -->

<svg
   xmlns:dc="http://purl.org/dc/elements/1.1/"
   xmlns:cc="http://creativecommons.org/ns#"
   xmlns:rdf="http://www.w3.org/1999/02/22-rdf-syntax-ns#"
   xmlns:svg="http://www.w3.org/2000/svg"
   xmlns="http://www.w3.org/2000/svg"
   xmlns:sodipodi="http://sodipodi.sourceforge.net/DTD/sodipodi-0.dtd"
   xmlns:inkscape="http://www.inkscape.org/namespaces/inkscape"
   width="466"
   height="64"
   id="svg2"
   version="1.1"
   inkscape:version="0.48.5 r10040"
   sodipodi:docname="logo.svg">
  <defs
     id="defs4" />
  <sodipodi:namedview
     id="base"
     pagecolor="#ffffff"
     bordercolor="#666666"
     borderopacity="1.0"
     inkscape:pageopacity="0.0"
     inkscape:pageshadow="2"
     inkscape:zoom="1.6567549"
     inkscape:cx="104.24685"
     inkscape:cy="69.942235"
     inkscape:document-units="px"
     inkscape:current-layer="layer1"
     showgrid="false"
     inkscape:window-width="1127"
     inkscape:window-height="749"
     inkscape:window-x="0"
     inkscape:window-y="1"
     inkscape:window-maximized="0" />
  <metadata
     id="metadata7">
    <rdf:RDF>
      <cc:Work
         rdf:about="">
        <dc:format>image/svg+xml</dc:format>
        <dc:type
           rdf:resource="http://purl.org/dc/dcmitype/StillImage" />
        <dc:title></dc:title>
      </cc:Work>
    </rdf:RDF>
  </metadata>
  <g
     inkscape:label="Layer 1"
     inkscape:groupmode="layer"
     id="layer1"
     transform="translate(0,-988.36218)">
    <g
       id="g3949"
       inkscape:export-filename="/Users/vorvor/Documents/davidbau/logo.png"
       inkscape:export-xdpi="90"
       inkscape:export-ydpi="90"
       transform="matrix(0.13930372,0,0,0.13930372,368.08254,597.10343)">
      <path
         id="path3942"
         d="m 491.5802,3254.5956 c -45.5848,-3.2045 -68.2952,-9.1204 -89.5874,-23.337 -4.3519,-2.9057 -12.8819,-10.2813 -18.9554,-16.3902 -20.4027,-20.5214 -28.4886,-36.4003 -36.209,-71.107 l -2.6694,-12 -0.3215,-114.75 -0.3216,-114.75 53.5035,0 53.5035,0 0.3124,113.25 c 0.2832,102.6628 0.4695,113.7599 1.9922,118.7047 3.0355,9.8575 7.7349,18.0036 13.9224,24.1338 12.4691,12.3535 31.9459,17.8124 53.3834,14.9622 25.2896,-3.3625 41.5032,-17.813 46.8416,-41.7481 1.4209,-6.3706 1.6053,-19.9553 1.6053,-118.25 l 0,-111.0526 54,0 54,0 -8e-4,105.75 c -6e-4,65.287 -0.3977,109.9589 -1.0381,116.75 -3.6689,38.9096 -16.7179,68.3293 -40.6368,91.6182 -19.691,19.1725 -38.0929,28.636 -66.8174,34.3623 -6.6038,1.3164 -16.9226,2.8719 -22.9306,3.4565 -9.8512,0.9586 -42.1806,1.1983 -53.5763,0.3972 z"
         style="fill:#808080;fill-opacity:1"
         inkscape:connector-curvature="0" />
      <path
         id="path3940"
         d="m -2621.4198,3238.7614 0,-10.5 276,0 276,0 0,-52.7518 0,-52.7518 -103,-102.9964 -103,-102.9963 -102.2584,102.2547 -102.2584,102.2548 -72.8102,-0.2566 -72.8102,-0.2566 108.4551,-108.4471 c 59.6504,-59.6459 109.2938,-108.7768 110.3187,-109.1797 1.0248,-0.403 33.1392,-0.7643 71.3651,-0.8029 l 69.5017,-0.07 108.7483,108.7517 108.7483,108.7517 0,64.7483 0,64.7483 -286.5,0 -286.5,0 0,-10.5 z"
         style="fill:#fa7806;fill-opacity:1"
         inkscape:connector-curvature="0" />
      <path
         d="m -1843.4198,3169.2642 c 19.3268,-1.6226 30.122,-5.5029 38.8361,-13.9597 8.4261,-8.1772 13.8207,-19.1267 17.295,-35.1036 3.0331,-13.9481 3.8442,-57.7697 1.3915,-75.1837 -1.9197,-13.6298 -6.0708,-27.7889 -10.2631,-35.0067 -4.678,-8.0539 -12.8586,-15.4989 -21.746,-19.7905 -14.4888,-6.9964 -28.5275,-9.251 -54.5135,-8.7547 l -15.5,0.2961 -0.2471,93 c -0.1359,51.15 -0.037,93.5625 0.2186,94.25 0.5775,1.5499 27.2734,1.7015 44.5285,0.2528 z m -152,-93.5028 0,-173.5 88.75,0.017 c 49.948,0.01 92.9035,0.4411 98.25,0.9866 26.1489,2.668 48.4291,9.5243 64.4321,19.8278 37.0131,23.8309 57.6936,59.5273 65.5635,113.1683 4.4628,30.4189 2.7015,77.9652 -3.894,105.1206 -11.4135,46.9916 -47.1283,86.5806 -88.6323,98.2467 -12.1905,3.4266 -31.9187,7.301 -43.6799,8.5782 -6.0358,0.6554 -42.0813,1.0545 -95.25,1.0545 l -85.5394,0 0,-173.5 z"
         style="fill:#fa7806;fill-opacity:1"
         id="path3936"
         inkscape:connector-curvature="0" />
      <path
         id="path3930"
         d="m -1202.8965,3247.5114 c -0.3798,-0.9625 -3.3958,-8.95 -6.7023,-17.75 -3.3064,-8.8 -7.4755,-19.825 -9.2646,-24.5 -5.942,-15.5263 -12.3435,-32.368 -16.5343,-43.5 -2.2777,-6.05 -5.8697,-15.5 -7.9823,-21 -2.1126,-5.5 -6.1041,-16.075 -8.8701,-23.5 -2.7659,-7.425 -8.0233,-21.375 -11.6831,-31 -8.117,-21.3472 -21.9185,-57.8888 -41.1686,-109 -14.8484,-39.4243 -20.3616,-53.9211 -25.4317,-66.873 -1.5875,-4.0552 -2.8863,-7.5427 -2.8863,-7.75 0,-0.2074 25.3553,-0.377 56.3451,-0.377 l 56.3451,0 2.059,6.75 c 2.5981,8.5173 10.7729,34.6497 17.7527,56.75 2.953,9.35 9.868,31.4 15.3667,49 5.4987,17.6 11.6338,37.175 13.6335,43.5 1.9998,6.325 5.6573,18.025 8.1278,26 2.4706,7.975 6.6921,21.475 9.381,30 2.6889,8.525 6.1943,19.684 7.7897,24.7978 1.5955,5.1138 3.277,9.3888 3.7367,9.5 0.787,0.1904 4.6547,-11.8119 19.9142,-61.7978 3.5259,-11.55 12.3428,-40.125 19.593,-63.5 7.2502,-23.375 13.7546,-44.525 14.4543,-47 0.6996,-2.475 4.3021,-14.175 8.0053,-26 3.7033,-11.825 7.5422,-24.2 8.531,-27.5 0.9887,-3.3 2.805,-9.2625 4.0362,-13.25 l 2.2385,-7.25 54.3451,0 c 33.8414,0 54.3451,0.3602 54.3451,0.9546 0,0.9397 -17.0063,47.6972 -19.4751,53.5454 -0.6966,1.65 -2.4832,6.375 -3.9703,10.5 -1.4871,4.125 -3.3417,9.075 -4.1214,11 -0.7797,1.925 -2.937,7.775 -4.7942,13 -3.9608,11.1437 -19.0537,51.9233 -21.0962,57 -0.7744,1.925 -3.8795,10.25 -6.9002,18.5 -6.5799,17.9712 -14.2075,38.5494 -31.1357,84 -16.9752,45.5767 -35.5571,95.7082 -36.047,97.25 -0.3117,0.9812 -12.9605,1.25 -58.8215,1.25 -54.7125,0 -58.4683,-0.1112 -59.1151,-1.75 z"
         style="fill:#fa7806;fill-opacity:1"
         inkscape:connector-curvature="0" />
      <path
         id="path3928"
         d="m -923.4198,3075.7614 0,-173.5 54,0 54,0 0,173.5 0,173.5 -54,0 -54,0 0,-173.5 z"
         style="fill:#fa7806;fill-opacity:1"
         inkscape:connector-curvature="0" />
      <path
         d="m -596.4198,3169.2354 c 13.2695,-1.1641 24.589,-3.976 30.9373,-7.6852 6.6134,-3.8641 14.3841,-12.6665 18.4614,-20.9124 7.584,-15.3379 10.0451,-33.7104 9.3071,-69.4787 -0.5394,-26.1476 -1.7336,-35.3874 -6.3398,-49.0513 -3.3436,-9.919 -6.6539,-15.5285 -13.085,-22.1735 -12.8771,-13.3054 -32.3454,-18.6467 -68.031,-18.6647 l -16.25,-0.01 0,93.8333 c 0,51.6084 0.3,94.1334 0.6667,94.5 1.0217,1.0217 31.3976,0.7755 44.3333,-0.3593 z m -152,-93.474 0,-173.5 88.394,0 c 90.8313,0 100.3709,0.3297 119.106,4.1164 47.9893,9.6993 82.4461,40.2767 99.8334,88.5931 13.0933,36.3844 16.0796,95.0965 7.1188,139.9581 -9.6642,48.3829 -43.6849,89.5008 -85.4522,103.2787 -11.282,3.7217 -34.7993,8.6285 -48.0343,10.0222 -5.503,0.5795 -45.3637,1.0041 -95.2157,1.0142 l -85.75,0.017 0,-173.5 z"
         style="fill:#fa7806;fill-opacity:1"
         id="path3924"
         inkscape:connector-curvature="0" />
      <path
         d="m -201.9198,3036.0383 c 15.5119,-4.5662 22.3514,-13.0425 23.2885,-28.8619 1.0248,-17.2991 -6.3685,-27.6816 -23.2885,-32.7043 -3.7791,-1.1218 -12.6308,-1.5962 -36.25,-1.943 l -31.25,-0.4587 0,33.2001 0,33.2002 31.25,-0.4803 c 23.4097,-0.3598 32.5045,-0.8496 36.25,-1.9521 z m 9.9904,135.8272 c 8.7885,-2.4998 14.138,-5.4773 18.6655,-10.389 5.276,-5.7239 7.8368,-11.7404 8.5334,-20.0491 1.4464,-17.2524 -8.3769,-30.1086 -26.5512,-34.7485 -5.4303,-1.3864 -13.1428,-1.7763 -42.3881,-2.1427 l -35.75,-0.4479 0,35.1817 0,35.1818 35.75,-0.4412 c 29.7178,-0.3667 36.7608,-0.7286 41.7404,-2.1451 z m -186.4904,-96.0971 0,-173.5723 112.75,0.3328 c 110.8905,0.3273 112.8902,0.3677 121.25,2.4487 4.675,1.1637 11.7009,3.2773 15.6131,4.697 26.914,9.7663 46.398999,30.5989 53.507799,57.2086 3.115,11.6597 3.1367,31.9106 0.046,42.8782 -4.6323,16.4384 -14.4057,31.5801 -26.166899,40.5398 -5.0764,3.8673 -22.288,12.9602 -24.5317,12.9602 -3.0841,0 -1.2744,1.6371 3.1045,2.8082 8.2183,2.1981 19.7804,7.0689 27.445099,11.562 18.4468,10.8134 30.1021,26.3295 35.72,47.5518 2.1857,8.2567 2.5385,11.7163 2.5571,25.078 0.019,13.5546 -0.3034,16.7185 -2.5684,25.2079 -5.9222,22.1973 -19.509,41.7439 -37.2266,53.5563 -11.690399,7.794 -20.537099,11.053 -38.499999,14.1828 -31.3099,5.4554 -30.1385,5.4071 -140.25,5.7823 l -102.75,0.3501 0,-173.5724 z"
         style="fill:#808080;fill-opacity:1"
         id="path3918"
         inkscape:connector-curvature="0" />
      <path
         d="m 178.3094,3115.5114 c -0.509,-1.767 -5.3137,-17.4879 -25.8388,-84.5435 -6.2107,-20.2904 -11.578,-36.2134 -11.9662,-35.5 -0.3872,0.7114 -3.2543,9.6185 -6.3712,19.7935 -3.1169,10.175 -6.976,22.775 -8.5758,28 -11.9439,39.0086 -21.9772,72.3929 -21.9772,73.1259 0,0.4833 16.8174,0.8741 37.6166,0.8741 35.3508,0 37.5863,-0.1054 37.1126,-1.75 z m -223.605501,128.5 c 1.1519,-2.8875 3.5931,-9.3 5.4247,-14.25 1.8317,-4.95 8.2634,-22.05 14.2927,-38 12.8214,-33.9182 29.1767002,-77.3604 68.5199,-182 15.7164,-41.8 31.2234,-82.975 34.4603,-91.5 l 5.8851,-15.5 58.896801,-0.2393 58.8968,-0.2393 34.9572,93.2393 c 19.2264,51.2816 38.2711,102.0143 42.3216,112.7393 4.0505,10.725 8.8519,23.55 10.6699,28.5 1.818,4.95 8.834,23.625 15.5911,41.5 6.7571,17.875 15.5305,41.1625 19.4965,51.75 l 7.2109,19.25 -56.3306,0 -56.3306,0 -3.9693,-12.75 c -2.1831,-7.0125 -6.1364,-19.8375 -8.7851,-28.5 l -4.8158,-15.75 -60.6571,0 -60.657101,0 -1.983,6.4966 c -1.0907,3.5732 -4.8485,16.3928 -8.3508,28.4881 l -6.3678,21.9913 -55.2353998,0.012 -55.2354002,0.012 2.0945,-5.25 z"
         style="fill:#808080;fill-opacity:1"
         id="path3914"
         inkscape:connector-curvature="0" />
      <path
         d="m -1525.6211,2874.0114 c 2.1886,-3.9875 5.2668,-9.5468 6.8403,-12.3539 1.5736,-2.8072 8.6853,-15.5197 15.8038,-28.25 l 12.9428,-23.1461 41.3072,0 c 24.368,0 41.3072,0.3759 41.3072,0.9167 0,0.5041 -0.4145,1.0666 -0.921,1.25 -0.5066,0.1833 -4.6917,3.9333 -9.3003,8.3333 -4.6086,4.4 -10.3816,9.814 -12.829,12.0311 -2.4473,2.2171 -15.1959,14.0296 -28.3302,26.25 l -23.8805,22.2189 -23.4599,0 -23.4599,0 3.9795,-7.25 z m 76.2013,242.4934 c 0,-0.4161 -0.406,-2.1036 -0.9022,-3.75 -2.0822,-6.9087 -20.515,-66.9132 -23.8052,-77.4934 -1.967,-6.325 -4.3582,-14.2 -5.3138,-17.5 -4.3789,-15.1209 -7.1912,-23.621 -7.6599,-23.1522 -0.4526,0.4526 -2.74,7.7302 -6.8053,21.6522 -0.7227,2.475 -7.6074,25.2 -15.2993,50.5 -7.6918,25.3 -14.2196,47.0125 -14.5061,48.25 l -0.521,2.25 37.4064,0 c 20.5735,0 37.4064,-0.3405 37.4064,-0.7566 z m -224.7475,131.0066 c 0.2671,-0.9625 16.5738,-44.5 36.237,-96.75 44.7096,-118.8041 52.0471,-138.3082 74.8646,-199 l 18.4219,-49 58.9731,-0.2579 58.9732,-0.2578 1.5409,4.2578 c 1.7262,4.7697 3.026,8.2453 19.7297,52.7579 6.5014,17.325 12.2908,32.625 12.8653,34 0.5745,1.375 5.4061,14.2 10.7368,28.5 5.3308,14.3 10.5614,28.25 11.6236,31 1.0622,2.75 2.3138,6.125 2.7814,7.5 0.4676,1.375 1.7233,4.75 2.7905,7.5 1.0671,2.75 4.2635,11.3 7.1029,19 2.8395,7.7 5.7849,15.575 6.5454,17.5 0.7606,1.925 2.7363,7.1 4.3905,11.5 4.1895,11.1433 11.9702,31.9201 14.4178,38.5 1.1253,3.025 2.6155,6.85 3.3116,8.5 0.6961,1.65 2.3877,6.15 3.7592,10 1.3715,3.85 3.5981,9.925 4.9481,13.5 12.0037,31.7882 18.3678,48.6886 20.805,55.25 l 2.8787,7.75 -56.4143,0 -56.4144,0 -2.6376,-8.75 c -1.4507,-4.8125 -3.2245,-10.55 -3.9419,-12.75 -0.7173,-2.2 -3.4472,-11.0875 -6.0665,-19.75 l -4.7624,-15.75 -60.6117,0 -60.6117,0 -2.1499,7.25 c -1.1824,3.9875 -3.3157,11.075 -4.7408,15.75 -1.425,4.675 -4.2531,14.2375 -6.2847,21.25 l -3.6938,12.75 -54.9266,0 c -51.8295,0 -54.8993,-0.099 -54.4409,-1.75 z"
         style="fill:#fa7806;fill-opacity:1"
         id="path3910"
         inkscape:connector-curvature="0" />
    </g>
  </g>
</svg>
